<svg width="1860" height="124" viewBox="0 0 1860 124" fill="none" xmlns="http://www.w3.org/2000/svg">
<path d="M385.41 70.1096H437.56V50.9596H385.41V21.8896H444.05V2.05957H364.38V121.74H445.76V101.91H385.41V70.1096Z" fill="#221E1F"/>
<path d="M667.27 50.6096H614.78V2.05957H593.75V121.74H614.78V70.6196H667.27V121.74H688.13V2.05957H667.27V50.6096Z" fill="#221E1F"/>
<path d="M57.79 86.3496C57.79 95.9796 49.52 103.79 39.32 103.79C29.12 103.79 20.86 95.9796 20.86 86.3496H0C0 109.56 17.61 123.79 39.33 123.79C61.05 123.79 78.66 109.55 78.66 86.3496V2.05957H57.8V86.3596L57.79 86.3496Z" fill="#221E1F"/>
<path d="M163.37 0.00976562C131.41 0.00976562 105.5 27.7198 105.5 61.8998C105.5 96.0798 131.41 123.79 163.37 123.79C195.33 123.79 221.24 96.0798 221.24 61.8998C221.24 27.7198 195.34 0.00976562 163.37 0.00976562ZM163.37 103.79C142.93 103.79 126.35 85.0398 126.35 61.8998C126.35 38.7598 142.92 20.0098 163.37 20.0098C183.82 20.0098 200.39 38.7598 200.39 61.8998C200.39 85.0398 183.82 103.79 163.37 103.79Z" fill="#221E1F"/>
<path d="M289.42 51.48C274.69 46.68 268.93 41.93 268.93 34.02C268.93 19.76 284.5 18.81 288.25 18.81C291.66 18.81 306.93 19.29 308.77 37.96H329.63C327.46 8.98 304.96 0 288.25 0C271.54 0 248.07 8.26 248.07 33.86C248.07 60.89 275.31 67.05 288.28 71.5C301.25 75.94 310.48 79.49 310.48 89.94C310.48 97.18 305.44 104.97 288.96 104.97C282.44 104.97 267.94 102.6 266.1 83.78H245.34C247.74 115.84 271.99 123.81 288.97 123.81C307.58 123.81 331.34 116.29 331.34 88.11C331.34 63.68 307.74 57.46 289.42 51.49V51.48Z" fill="#221E1F"/>
<path d="M525.29 2.0598H480.67V121.74H501.7V81.0498H525.29C547.1 81.0498 564.79 63.3698 564.79 41.5498C564.79 19.7298 547.11 2.0498 525.29 2.0498V2.0598ZM525.29 61.0498H501.7V22.0598H525.29C536.06 22.0598 544.78 30.7898 544.78 41.5498C544.78 52.3098 536.05 61.0398 525.29 61.0398V61.0498Z" fill="#221E1F"/>
<path d="M1295.93 22.0596H1331.33V121.74H1352.19V22.0596H1387.41V2.05957H1295.93V22.0596Z" fill="#221E1F"/>
<path d="M1439.3 2.05957L1394.34 121.75H1415.54L1425.15 95.4196H1472.73L1482.22 121.75H1504.27L1459.47 2.05957H1439.29H1439.3ZM1432.15 76.0996L1448.97 28.7396L1465.79 76.0996H1432.15Z" fill="#221E1F"/>
<path d="M1681.53 70.1096H1733.68V50.9596H1681.53V21.8896H1740.17V2.05957H1660.5V121.74H1741.88V101.91H1681.53V70.1096Z" fill="#221E1F"/>
<path d="M1837.6 2.05957L1810.92 54.6396L1784.08 2.05957H1761L1800.15 76.4396V121.74H1821.02V76.4396L1860 2.05957H1837.6Z" fill="#221E1F"/>
<path d="M1235.12 51.48C1220.39 46.68 1214.63 41.93 1214.63 34.02C1214.63 19.76 1230.2 18.81 1233.95 18.81C1237.36 18.81 1252.63 19.29 1254.47 37.96H1275.33C1273.16 8.98 1250.66 0 1233.95 0C1217.24 0 1193.77 8.26 1193.77 33.86C1193.77 60.89 1221.01 67.05 1233.98 71.5C1246.95 75.94 1256.18 79.49 1256.18 89.94C1256.18 97.18 1251.14 104.97 1234.66 104.97C1228.14 104.97 1213.64 102.6 1211.8 83.78H1191.04C1193.44 115.84 1217.69 123.81 1234.67 123.81C1253.28 123.81 1277.04 116.29 1277.04 88.11C1277.04 63.68 1253.44 57.46 1235.12 51.49V51.48Z" fill="#221E1F"/>
<path d="M1573.63 20.02C1588.07 20.02 1600.54 29.7 1606.42 43.72H1627.21C1620.18 18.41 1598.85 0 1573.63 0C1541.86 0 1516.11 27.71 1516.11 61.89C1516.11 96.07 1541.86 123.78 1573.63 123.78C1598.75 123.78 1620.01 105.52 1627.13 80.37H1606.29C1600.36 94.23 1587.96 103.77 1573.63 103.77C1553.38 103.77 1536.97 85.02 1536.97 61.88C1536.97 38.74 1553.39 19.99 1573.63 19.99V20.02Z" fill="#221E1F"/>
<path d="M806.17 2.05957L761.21 121.75H782.41L792.02 95.4196H839.6L849.09 121.75H871.14L826.35 2.05957H806.17ZM799.02 76.0996L815.84 28.7396L832.66 76.0996H799.02Z" fill="#221E1F"/>
<path d="M966.45 85.8596L910.2 2.05957H890.88V121.74H911.23V37.9296L967.65 121.74H986.8V2.05957H966.45V85.8596Z" fill="#221E1F"/>
<path d="M1057.94 2.05957H1021.69V121.75H1057.94C1090.99 121.75 1117.78 94.9596 1117.78 61.9096C1117.78 28.8596 1090.99 2.06957 1057.94 2.06957V2.05957ZM1057.94 101.74H1042.72V22.0596H1057.94C1079.47 22.0596 1096.92 39.8996 1096.92 61.8996C1096.92 83.8996 1079.47 101.74 1057.94 101.74Z" fill="#221E1F"/>
</svg>
